<svg width="20" height="23" viewBox="0 0 20 23" fill="none" xmlns="http://www.w3.org/2000/svg">
<g clip-path="url(#clip0_28_69)" filter="url(#filter0_d_28_69)">
<g filter="url(#filter1_d_28_69)">
<path d="M4.99996 6.66666C4.8452 6.66666 4.6935 6.70975 4.56185 6.79111C4.4302 6.87248 4.32381 6.98889 4.2546 7.12731C4.18539 7.26573 4.1561 7.42069 4.16999 7.57483C4.18389 7.72896 4.24044 7.87618 4.33329 7.99999L9.33329 14.6667C9.41092 14.7702 9.51157 14.8542 9.62728 14.912C9.74299 14.9699 9.87059 15 9.99996 15C10.1293 15 10.2569 14.9699 10.3726 14.912C10.4884 14.8542 10.589 14.7702 10.6666 14.6667L15.6666 7.99999C15.7595 7.87618 15.816 7.72896 15.8299 7.57483C15.8438 7.42069 15.8145 7.26573 15.7453 7.12731C15.6761 6.98889 15.5697 6.87248 15.4381 6.79111C15.3064 6.70975 15.1547 6.66666 15 6.66666H4.99996Z" fill="white"/>
</g>
</g>
<defs>
<filter id="filter0_d_28_69" x="-4" y="0" width="28" height="28" filterUnits="userSpaceOnUse" color-interpolation-filters="sRGB">
<feFlood flood-opacity="0" result="BackgroundImageFix"/>
<feColorMatrix in="SourceAlpha" type="matrix" values="0 0 0 0 0 0 0 0 0 0 0 0 0 0 0 0 0 0 127 0" result="hardAlpha"/>
<feOffset dy="4"/>
<feGaussianBlur stdDeviation="2"/>
<feComposite in2="hardAlpha" operator="out"/>
<feColorMatrix type="matrix" values="0 0 0 0 0 0 0 0 0 0 0 0 0 0 0 0 0 0 0.27 0"/>
<feBlend mode="normal" in2="BackgroundImageFix" result="effect1_dropShadow_28_69"/>
<feBlend mode="normal" in="SourceGraphic" in2="effect1_dropShadow_28_69" result="shape"/>
</filter>
<filter id="filter1_d_28_69" x="0.166626" y="6.66666" width="19.6666" height="16.3333" filterUnits="userSpaceOnUse" color-interpolation-filters="sRGB">
<feFlood flood-opacity="0" result="BackgroundImageFix"/>
<feColorMatrix in="SourceAlpha" type="matrix" values="0 0 0 0 0 0 0 0 0 0 0 0 0 0 0 0 0 0 127 0" result="hardAlpha"/>
<feOffset dy="4"/>
<feGaussianBlur stdDeviation="2"/>
<feComposite in2="hardAlpha" operator="out"/>
<feColorMatrix type="matrix" values="0 0 0 0 0 0 0 0 0 0 0 0 0 0 0 0 0 0 0.39 0"/>
<feBlend mode="normal" in2="BackgroundImageFix" result="effect1_dropShadow_28_69"/>
<feBlend mode="normal" in="SourceGraphic" in2="effect1_dropShadow_28_69" result="shape"/>
</filter>
<clipPath id="clip0_28_69">
<rect width="20" height="20" fill="white"/>
</clipPath>
</defs>
</svg>
