<svg width="23" height="23" viewBox="0 0 23 23" fill="none" xmlns="http://www.w3.org/2000/svg">
<g clip-path="url(#clip0_26_6)">
<g filter="url(#filter0_d_26_6)">
<path d="M11.5 2.875V1.91666M11.5 21.0833V20.125M20.125 11.5H21.0833M1.91663 11.5H2.87496M17.7291 5.27083L19.1666 3.83333M3.83329 19.1667L5.27079 17.7292M3.83329 3.83333L5.27079 5.27083M17.7291 17.7292L19.1666 19.1667" stroke="white" stroke-width="2.66667" stroke-linecap="round"/>
<path d="M11.5 15.3333C13.6171 15.3333 15.3333 13.6171 15.3333 11.5C15.3333 9.38291 13.6171 7.66666 11.5 7.66666C9.38287 7.66666 7.66663 9.38291 7.66663 11.5C7.66663 13.6171 9.38287 15.3333 11.5 15.3333Z" stroke="white" stroke-width="2.66667" stroke-linecap="round"/>
</g>
</g>
<defs>
<filter id="filter0_d_26_6" x="-3.41675" y="0.583328" width="29.8334" height="29.8333" filterUnits="userSpaceOnUse" color-interpolation-filters="sRGB">
<feFlood flood-opacity="0" result="BackgroundImageFix"/>
<feColorMatrix in="SourceAlpha" type="matrix" values="0 0 0 0 0 0 0 0 0 0 0 0 0 0 0 0 0 0 127 0" result="hardAlpha"/>
<feOffset dy="4"/>
<feGaussianBlur stdDeviation="2"/>
<feComposite in2="hardAlpha" operator="out"/>
<feColorMatrix type="matrix" values="0 0 0 0 0 0 0 0 0 0 0 0 0 0 0 0 0 0 0.31 0"/>
<feBlend mode="normal" in2="BackgroundImageFix" result="effect1_dropShadow_26_6"/>
<feBlend mode="normal" in="SourceGraphic" in2="effect1_dropShadow_26_6" result="shape"/>
</filter>
<clipPath id="clip0_26_6">
<rect width="23" height="23" fill="white"/>
</clipPath>
</defs>
</svg>
