<svg width="25" height="25" viewBox="0 0 25 25" fill="none" xmlns="http://www.w3.org/2000/svg">
<g clip-path="url(#clip0_27_2)">
<path d="M14.5833 3.40521C14.5833 2.675 13.9917 2.08334 13.2615 2.08334H11.7396C11.0083 2.08334 10.4167 2.675 10.4167 3.40521C10.4167 4.00729 10.0042 4.52396 9.4427 4.74479C9.35381 4.78091 9.26597 4.81771 9.17916 4.85521C8.62604 5.09479 7.96875 5.02188 7.54166 4.59584C7.29365 4.34839 6.95762 4.20943 6.60729 4.20943C6.25695 4.20943 5.92092 4.34839 5.67291 4.59584L4.59583 5.67292C4.34839 5.92093 4.20942 6.25696 4.20942 6.60729C4.20942 6.95763 4.34839 7.29366 4.59583 7.54167C5.02291 7.96875 5.09583 8.625 4.85416 9.17917C4.8162 9.26639 4.77974 9.35425 4.74479 9.44271C4.52395 10.0042 4.00729 10.4167 3.4052 10.4167C2.675 10.4167 2.08333 11.0083 2.08333 11.7385V13.2615C2.08333 13.9917 2.675 14.5833 3.4052 14.5833C4.00729 14.5833 4.52395 14.9958 4.74479 15.5573C4.7809 15.6462 4.81736 15.734 4.85416 15.8208C5.09479 16.374 5.02187 17.0313 4.59583 17.4583C4.34839 17.7063 4.20942 18.0424 4.20942 18.3927C4.20942 18.743 4.34839 19.0791 4.59583 19.3271L5.67291 20.4042C5.92092 20.6516 6.25695 20.7906 6.60729 20.7906C6.95762 20.7906 7.29365 20.6516 7.54166 20.4042C7.96875 19.9771 8.625 19.9042 9.17916 20.1448C9.26597 20.183 9.35381 20.2198 9.4427 20.2552C10.0042 20.476 10.4167 20.9927 10.4167 21.5948C10.4167 22.325 11.0083 22.9167 11.7385 22.9167H13.2615C13.9917 22.9167 14.5833 22.325 14.5833 21.5948C14.5833 20.9927 14.9958 20.476 15.5573 20.2542C15.6462 20.2194 15.734 20.1833 15.8208 20.1458C16.374 19.9042 17.0312 19.9781 17.4573 20.4042C17.7053 20.6519 18.0416 20.7911 18.3922 20.7911C18.7428 20.7911 19.079 20.6519 19.3271 20.4042L20.4042 19.3271C20.6516 19.0791 20.7906 18.743 20.7906 18.3927C20.7906 18.0424 20.6516 17.7063 20.4042 17.4583C19.9771 17.0313 19.9042 16.375 20.1448 15.8208C20.183 15.734 20.2198 15.6462 20.2552 15.5573C20.476 14.9958 20.9927 14.5833 21.5948 14.5833C22.325 14.5833 22.9167 13.9917 22.9167 13.2615V11.7396C22.9167 11.0094 22.325 10.4177 21.5948 10.4177C20.9927 10.4177 20.476 10.0052 20.2542 9.44375C20.2192 9.35529 20.1827 9.26743 20.1448 9.18021C19.9052 8.62709 19.9781 7.96979 20.4042 7.54271C20.6516 7.2947 20.7906 6.95867 20.7906 6.60834C20.7906 6.258 20.6516 5.92197 20.4042 5.67396L19.3271 4.59688C19.0791 4.34944 18.743 4.21047 18.3927 4.21047C18.0424 4.21047 17.7063 4.34944 17.4583 4.59688C17.0312 5.02396 16.375 5.09688 15.8208 4.85625C15.7336 4.81794 15.6458 4.78113 15.5573 4.74584C14.9958 4.52396 14.5833 4.00625 14.5833 3.40521Z" stroke="white" stroke-width="2.66667"/>
<path d="M16.6667 12.5C16.6667 13.6051 16.2277 14.6649 15.4463 15.4463C14.6649 16.2277 13.6051 16.6667 12.5 16.6667C11.3949 16.6667 10.3351 16.2277 9.55372 15.4463C8.77231 14.6649 8.33333 13.6051 8.33333 12.5C8.33333 11.3949 8.77231 10.3351 9.55372 9.55372C10.3351 8.77232 11.3949 8.33334 12.5 8.33334C13.6051 8.33334 14.6649 8.77232 15.4463 9.55372C16.2277 10.3351 16.6667 11.3949 16.6667 12.5Z" stroke="white" stroke-width="2.66667"/>
</g>
<defs>
<clipPath id="clip0_27_2">
<rect width="25" height="25" fill="white"/>
</clipPath>
</defs>
</svg>
