<svg width="20" height="24" viewBox="0 0 20 24" fill="none" xmlns="http://www.w3.org/2000/svg">
<g filter="url(#filter0_d_28_67)">
<path d="M6.66663 4.99999C6.66663 4.84523 6.70972 4.69353 6.79108 4.56188C6.87245 4.43023 6.98886 4.32384 7.12728 4.25463C7.2657 4.18542 7.42066 4.15613 7.5748 4.17002C7.72893 4.18392 7.87615 4.24047 7.99996 4.33332L14.6666 9.33332C14.7701 9.41095 14.8541 9.5116 14.912 9.62731C14.9698 9.74303 15 9.87062 15 9.99999C15 10.1294 14.9698 10.257 14.912 10.3727C14.8541 10.4884 14.7701 10.589 14.6666 10.6667L7.99996 15.6667C7.87615 15.7595 7.72893 15.8161 7.5748 15.83C7.42066 15.8439 7.2657 15.8146 7.12728 15.7453C6.98886 15.6761 6.87245 15.5697 6.79108 15.4381C6.70972 15.3065 6.66663 15.1548 6.66663 15V4.99999Z" fill="white"/>
</g>
<defs>
<filter id="filter0_d_28_67" x="-4" y="0" width="28" height="28" filterUnits="userSpaceOnUse" color-interpolation-filters="sRGB">
<feFlood flood-opacity="0" result="BackgroundImageFix"/>
<feColorMatrix in="SourceAlpha" type="matrix" values="0 0 0 0 0 0 0 0 0 0 0 0 0 0 0 0 0 0 127 0" result="hardAlpha"/>
<feOffset dy="4"/>
<feGaussianBlur stdDeviation="2"/>
<feComposite in2="hardAlpha" operator="out"/>
<feColorMatrix type="matrix" values="0 0 0 0 0 0 0 0 0 0 0 0 0 0 0 0 0 0 0.27 0"/>
<feBlend mode="normal" in2="BackgroundImageFix" result="effect1_dropShadow_28_67"/>
<feBlend mode="normal" in="SourceGraphic" in2="effect1_dropShadow_28_67" result="shape"/>
</filter>
</defs>
</svg>
