<svg width="32" height="32" viewBox="0 0 32 32" fill="none" xmlns="http://www.w3.org/2000/svg">
<path d="M17.3333 20.3733V7.33334C17.3333 6.97971 17.1928 6.64058 16.9428 6.39053C16.6927 6.14048 16.3536 6 16 6C15.6463 6 15.3072 6.14048 15.0571 6.39053C14.8071 6.64058 14.6666 6.97971 14.6666 7.33334V20.3733C14.2636 20.606 13.9285 20.9401 13.6946 21.3424C13.4606 21.7448 13.3361 22.2013 13.3333 22.6667C13.3333 23.3739 13.6142 24.0522 14.1143 24.5523C14.6144 25.0524 15.2927 25.3333 16 25.3333C16.7072 25.3333 17.3855 25.0524 17.8856 24.5523C18.3857 24.0522 18.6666 23.3739 18.6666 22.6667C18.6638 22.2013 18.5393 21.7448 18.3054 21.3424C18.0714 20.9401 17.7363 20.606 17.3333 20.3733ZM22 17.3333V7.33334C22 5.74204 21.3678 4.21591 20.2426 3.0907C19.1174 1.96548 17.5913 1.33334 16 1.33334C14.4087 1.33334 12.8825 1.96548 11.7573 3.0907C10.6321 4.21591 9.99996 5.74204 9.99996 7.33334V17.3333C9.07841 18.3776 8.44546 19.6444 8.1637 21.0083C7.88195 22.3723 7.96116 23.7861 8.39349 25.1101C8.82583 26.434 9.59631 27.6222 10.6287 28.557C11.6611 29.4918 12.9197 30.1409 14.28 30.44C14.845 30.5688 15.4208 30.6447 16 30.6667C17.5475 30.6739 19.0638 30.2321 20.3653 29.3949C21.6668 28.5576 22.6975 27.3609 23.3326 25.9497C23.9676 24.5385 24.1797 22.9734 23.9432 21.444C23.7067 19.9147 23.0317 18.4868 22 17.3333ZM19.3333 26.76C18.631 27.331 17.795 27.7138 16.9039 27.8726C16.0128 28.0313 15.096 27.9606 14.2398 27.6672C13.3836 27.3738 12.6161 26.8673 12.0097 26.1954C11.4032 25.5235 10.9778 24.7084 10.7733 23.8267C10.5673 22.9354 10.594 22.0061 10.8509 21.1282C11.1077 20.2502 11.5861 19.453 12.24 18.8133C12.3659 18.6898 12.4662 18.5426 12.5348 18.3801C12.6035 18.2176 12.6392 18.0431 12.64 17.8667V7.33334C12.64 6.44928 12.9911 5.60143 13.6163 4.97631C14.2414 4.35119 15.0892 4 15.9733 4C16.8573 4 17.7052 4.35119 18.3303 4.97631C18.9554 5.60143 19.3066 6.44928 19.3066 7.33334V17.92C19.3074 18.0964 19.3431 18.2709 19.4117 18.4334C19.4804 18.5959 19.5806 18.7432 19.7066 18.8667C20.2516 19.3932 20.6782 20.0298 20.9579 20.734C21.2375 21.4383 21.3639 22.1941 21.3286 22.9511C21.2933 23.708 21.097 24.4488 20.753 25.1239C20.4089 25.7991 19.925 26.3932 19.3333 26.8667V26.76Z" fill="white"/>
</svg>
